<svg width="30" height="30" viewBox="0 0 30 30" fill="none" xmlns="http://www.w3.org/2000/svg">
<g clip-path="url(#clip0)">
<path d="M29.9709 8.82008C29.9006 7.22607 29.6429 6.1302 29.2736 5.18061C28.8927 4.17264 28.3066 3.27022 27.5388 2.52002C26.7886 1.75816 25.8802 1.16615 24.8839 0.79117C23.9288 0.421912 22.8387 0.16414 21.2447 0.0938599C19.6388 0.0176273 19.129 0 15.0559 0C10.9828 0 10.473 0.0176273 8.87305 0.0879078C7.27904 0.158188 6.18317 0.416188 5.23381 0.785218C4.22562 1.16615 3.32319 1.7522 2.573 2.52002C1.81113 3.27022 1.21936 4.1786 0.844148 5.17488C0.47489 6.1302 0.217119 7.22011 0.146838 8.81413C0.0706058 10.42 0.0529785 10.9299 0.0529785 15.0029C0.0529785 19.076 0.0706058 19.5858 0.140886 21.1858C0.211167 22.7798 0.469167 23.8757 0.838425 24.8253C1.21936 25.8332 1.81113 26.7356 2.573 27.4858C3.32319 28.2477 4.23157 28.8397 5.22786 29.2147C6.18317 29.584 7.27309 29.8417 8.86733 29.912C10.4671 29.9825 10.9771 29.9999 15.0502 29.9999C19.1232 29.9999 19.633 29.9825 21.233 29.912C22.827 29.8417 23.9229 29.584 24.8723 29.2147C26.8884 28.4352 28.4824 26.8412 29.2619 24.8253C29.6309 23.8699 29.8889 22.7798 29.9592 21.1858C30.0295 19.5858 30.0471 19.076 30.0471 15.0029C30.0471 10.9299 30.0412 10.42 29.9709 8.82008ZM27.2693 21.0686C27.2048 22.5337 26.9587 23.3249 26.7536 23.8523C26.2495 25.1593 25.2122 26.1965 23.9053 26.7006C23.3778 26.9057 22.5809 27.1518 21.1215 27.2162C19.5392 27.2867 19.0646 27.3041 15.0618 27.3041C11.0591 27.3041 10.5786 27.2867 9.00194 27.2162C7.53681 27.1518 6.74564 26.9057 6.21819 26.7006C5.56781 26.4602 4.97581 26.0793 4.49529 25.5812C3.99715 25.0947 3.61622 24.5086 3.37584 23.8583C3.17073 23.3308 2.92463 22.5337 2.8603 21.0745C2.78979 19.4922 2.77239 19.0174 2.77239 15.0146C2.77239 11.0118 2.78979 10.5313 2.8603 8.95492C2.92463 7.48979 3.17073 6.69862 3.37584 6.17117C3.61622 5.52056 3.99715 4.92879 4.50125 4.44804C4.98749 3.9499 5.57354 3.56896 6.22415 3.32882C6.75159 3.1237 7.54871 2.87761 9.00789 2.81305C10.5902 2.74277 11.065 2.72514 15.0676 2.72514C19.0763 2.72514 19.5509 2.74277 21.1275 2.81305C22.5926 2.87761 23.3838 3.1237 23.9112 3.32882C24.5616 3.56896 25.1536 3.9499 25.6341 4.44804C26.1323 4.93451 26.5132 5.52056 26.7536 6.17117C26.9587 6.69862 27.2048 7.49551 27.2693 8.95492C27.3396 10.5373 27.3573 11.0118 27.3573 15.0146C27.3573 19.0174 27.3396 19.4862 27.2693 21.0686Z" fill="#717171"/>
<path d="M15.0557 7.29639C10.8011 7.29639 7.34912 10.7481 7.34912 15.003C7.34912 19.2578 10.8011 22.7096 15.0557 22.7096C19.3105 22.7096 22.7623 19.2578 22.7623 15.003C22.7623 10.7481 19.3105 7.29639 15.0557 7.29639ZM15.0557 20.002C12.2955 20.002 10.0566 17.7634 10.0566 15.003C10.0566 12.2426 12.2955 10.0039 15.0557 10.0039C17.8161 10.0039 20.0548 12.2426 20.0548 15.003C20.0548 17.7634 17.8161 20.002 15.0557 20.002Z" fill="#717171"/>
<path d="M24.8663 6.99152C24.8663 7.98506 24.0607 8.79066 23.067 8.79066C22.0734 8.79066 21.2678 7.98506 21.2678 6.99152C21.2678 5.99775 22.0734 5.19238 23.067 5.19238C24.0607 5.19238 24.8663 5.99775 24.8663 6.99152Z" fill="#717171"/>
</g>
<defs>
<clipPath id="clip0">
<rect width="30" height="30" fill="white"/>
</clipPath>
</defs>
</svg>
